<svg xmlns="http://www.w3.org/2000/svg" viewBox="0 0 900 900" width="900" height="900">
<rect width="100%" height="100%" fill="#f5f8f1"/>
<path d="M 208 711 L 189 713 L 186 715 L 192 718 L 202 718 Z M 334 522 L 332 524 L 332 561 L 334 562 L 334 532 L 339 525 L 349 523 L 353 525 L 357 531 L 357 564 L 355 566 L 345 565 L 341 567 L 358 568 L 359 522 L 354 520 L 341 520 Z M 399 514 L 390 522 L 387 530 L 388 585 L 390 585 L 390 534 L 392 532 L 401 532 L 392 531 L 391 527 L 396 520 L 405 516 L 416 517 L 425 526 L 425 584 L 428 585 L 429 528 L 427 522 L 417 513 L 405 512 Z M 547 475 L 546 481 L 550 483 L 550 493 L 555 494 L 554 481 L 550 481 L 548 479 L 550 476 L 554 476 Z M 358 441 L 334 446 L 332 448 L 334 475 L 334 461 L 336 459 L 334 451 L 336 449 L 352 445 L 357 446 L 357 452 L 355 455 L 357 456 L 358 472 Z M 422 427 L 395 433 L 393 435 L 395 438 L 395 463 L 396 438 L 398 436 L 419 431 L 421 443 L 419 446 L 422 454 Z M 445 402 L 313 434 L 300 439 L 301 441 L 405 416 L 411 413 L 414 414 L 444 406 Z M 563 431 L 557 424 L 507 332 L 448 408 L 447 488 L 444 491 L 370 500 L 348 498 L 305 504 L 304 508 L 354 501 L 377 505 L 445 497 L 447 499 L 448 579 L 489 579 L 492 576 L 498 576 L 501 579 L 508 579 L 514 573 L 521 579 L 541 579 L 563 567 L 562 507 L 548 509 L 548 518 L 551 521 L 551 569 L 549 571 L 523 571 L 521 569 L 522 519 L 509 517 L 509 570 L 507 572 L 469 572 L 467 570 L 468 515 L 464 512 L 464 499 L 488 495 L 488 492 L 466 493 L 464 499 L 448 498 L 446 496 L 446 491 L 465 491 L 465 468 L 467 466 L 481 463 L 480 434 L 483 428 L 492 420 L 501 417 L 515 418 L 530 429 L 537 444 L 538 470 L 560 473 L 563 472 Z M 551 445 L 554 449 L 553 452 L 551 451 L 553 456 L 548 459 L 545 455 L 545 450 Z M 470 432 L 475 435 L 474 444 L 471 447 L 467 445 L 465 440 Z M 497 360 L 520 365 L 524 368 L 523 397 L 525 400 L 523 402 L 494 396 L 496 388 L 495 362 Z M 382 326 L 381 386 L 396 370 L 397 331 Z" fill="#c0ddb7" fill-rule="evenodd"/>
<path d="M 381 588 L 382 590 L 428 589 L 427 586 L 402 588 L 401 586 L 400 588 L 392 586 L 389 588 L 386 586 Z M 448 580 L 449 601 L 479 601 L 484 599 L 481 591 L 485 589 L 486 580 Z M 465 501 L 466 513 L 547 518 L 547 508 Z M 446 499 L 441 498 L 386 504 L 338 511 L 315 511 L 315 552 L 330 561 L 331 524 L 334 521 L 341 519 L 358 520 L 360 522 L 360 567 L 358 569 L 346 570 L 359 577 L 361 574 L 368 571 L 373 579 L 386 579 L 387 526 L 389 522 L 399 513 L 413 511 L 419 513 L 428 522 L 430 528 L 429 578 L 446 579 Z M 446 413 L 316 443 L 315 478 L 332 476 L 331 448 L 334 445 L 358 440 L 360 442 L 359 472 L 362 474 L 367 474 L 371 477 L 371 498 L 444 490 L 446 488 Z M 422 426 L 424 428 L 422 464 L 427 469 L 426 481 L 424 483 L 404 486 L 389 484 L 386 480 L 385 474 L 388 469 L 391 468 L 391 465 L 394 464 L 394 438 L 392 435 L 395 432 Z M 655 464 L 643 447 L 620 426 L 599 413 L 565 396 L 579 423 L 577 428 L 564 431 L 564 472 L 570 476 L 570 497 L 573 500 L 572 506 L 583 514 L 583 557 L 539 581 L 522 580 L 525 582 L 531 581 L 532 584 L 450 627 L 450 720 L 448 722 L 427 721 L 405 717 L 382 711 L 361 703 L 271 706 L 214 710 L 207 712 L 203 718 L 222 721 L 279 725 L 449 729 L 621 725 L 678 721 L 710 716 L 710 714 L 664 708 L 541 704 L 539 702 L 573 687 L 595 674 L 617 657 L 643 628 L 659 599 L 667 572 L 666 568 L 669 557 L 669 510 L 664 485 Z M 510 328 L 508 332 L 558 424 L 563 429 L 564 425 L 512 329 Z M 380 327 L 369 331 L 370 390 L 380 387 Z M 448 127 L 449 229 L 590 307 L 664 306 L 663 285 L 656 262 L 646 245 L 632 230 L 618 220 L 449 126 Z" fill="#639d63" fill-rule="evenodd"/>
<path d="M 446 581 L 430 580 L 429 589 L 427 591 L 386 592 L 391 595 L 421 595 L 420 597 L 405 597 L 405 602 L 444 601 L 446 600 Z M 371 582 L 379 588 L 385 586 L 384 580 L 373 580 Z M 531 582 L 522 582 L 514 574 L 504 588 L 511 594 L 509 588 L 512 585 L 515 586 L 516 583 L 518 585 L 527 586 L 531 584 Z M 418 536 L 407 538 L 408 555 L 419 553 Z M 534 535 L 527 536 L 527 560 L 535 552 Z M 497 534 L 496 560 L 497 562 L 498 561 L 501 563 L 501 535 Z M 493 534 L 484 534 L 484 548 L 491 542 Z M 394 533 L 392 535 L 392 585 L 396 586 L 396 534 Z M 479 532 L 472 533 L 472 562 L 480 553 Z M 425 473 L 416 470 L 412 472 L 394 474 L 388 476 L 387 480 L 389 482 L 420 478 L 424 481 Z M 518 446 L 519 466 L 528 468 L 530 449 Z M 503 444 L 502 465 L 507 464 L 506 463 L 509 462 L 511 457 L 512 465 L 514 466 L 515 447 L 513 445 Z M 487 441 L 486 462 L 498 464 L 498 443 Z M 519 429 L 519 441 L 523 443 L 530 443 L 527 436 Z M 497 425 L 488 432 L 487 437 L 498 437 Z M 503 424 L 502 438 L 504 440 L 514 441 L 515 426 L 512 424 Z M 501 379 L 500 392 L 507 394 L 508 382 Z M 381 318 L 382 324 L 399 327 L 398 322 Z M 314 201 L 280 219 L 268 227 L 255 239 L 240 262 L 232 289 L 232 368 L 238 389 L 251 409 L 263 420 L 286 433 L 299 437 L 368 367 L 317 341 L 314 338 Z" fill="#2a7641" fill-rule="evenodd"/>
<path d="M 509 594 L 503 588 L 504 583 L 493 577 L 491 581 L 487 583 L 487 590 L 482 593 L 486 599 L 474 603 L 493 603 Z M 545 541 L 538 549 L 539 565 L 545 564 Z M 492 541 L 484 550 L 485 566 L 493 565 Z M 348 537 L 347 563 L 354 564 L 356 556 L 355 537 Z M 404 533 L 403 557 L 406 558 L 406 563 L 403 565 L 403 584 L 422 585 L 423 565 L 420 563 L 420 558 L 423 556 L 423 533 Z M 418 535 L 420 537 L 420 553 L 418 555 L 408 556 L 406 554 L 406 538 L 408 536 Z M 222 552 L 223 564 L 230 588 L 242 611 L 258 633 L 279 654 L 294 666 L 322 684 L 371 706 L 418 718 L 444 721 L 448 720 L 448 627 L 409 606 L 407 603 L 404 603 L 373 586 L 370 583 L 371 579 L 366 572 L 358 578 L 337 566 L 344 563 L 344 538 L 336 538 L 336 560 L 334 564 L 274 531 L 267 532 Z M 393 530 L 422 528 L 423 526 L 414 518 L 404 518 L 395 524 Z M 365 505 L 344 504 L 311 509 L 332 510 L 360 507 Z M 468 499 L 474 501 L 543 507 L 563 505 L 491 497 Z M 423 480 L 412 479 L 394 482 L 393 484 L 401 485 L 421 482 Z M 518 468 L 518 491 L 520 493 L 528 492 L 530 494 L 536 494 L 536 491 L 544 485 L 540 483 L 540 481 L 536 480 L 528 483 L 526 482 L 526 480 L 530 478 L 530 473 L 534 470 L 529 468 Z M 511 458 L 507 465 L 501 467 L 501 491 L 507 490 L 504 490 L 503 486 L 506 482 L 511 480 L 511 470 L 516 469 L 511 465 Z M 354 456 L 348 458 L 348 472 L 346 474 L 344 472 L 344 459 L 339 459 L 337 461 L 337 474 L 335 476 L 337 479 L 337 489 L 334 495 L 331 493 L 332 490 L 329 487 L 329 479 L 331 477 L 324 478 L 324 480 L 329 480 L 328 487 L 314 482 L 316 480 L 314 481 L 314 485 L 323 487 L 324 492 L 325 488 L 329 490 L 329 497 L 324 500 L 354 496 L 354 477 L 356 475 L 370 477 L 366 477 L 355 472 Z M 419 448 L 414 448 L 411 450 L 411 461 L 409 463 L 407 462 L 407 451 L 400 451 L 399 463 L 387 474 L 389 475 L 416 469 L 425 471 L 426 470 L 424 468 L 420 467 L 420 464 L 416 464 L 419 460 Z M 446 409 L 438 409 L 310 441 L 316 442 L 441 413 Z M 515 322 L 512 327 L 566 426 L 565 429 L 571 428 L 573 426 L 521 330 Z M 380 318 L 368 322 L 367 328 L 370 329 L 381 325 Z M 513 312 L 399 348 L 398 370 L 381 389 L 373 391 L 367 390 L 366 369 L 302 435 L 445 400 Z M 447 127 L 399 152 L 315 200 L 316 302 L 447 227 Z" fill="#064d29" fill-rule="evenodd"/>
</svg>